# File produced by Open Asset Import Library (http://www.assimp.sf.net)
# (assimp v5.0.1588609223)

mtllib result.mtl

# 129 vertex positions
v  -0.018999999 2.7609999 0.18700001
v  -0.109 2.681 0.27200001
v  -0.02 2.6530001 0.324
v  0.082999997 2.7190001 0.24699999
v  0.14399999 2.7639999 0.2
v  0.206 2.681 0.278
v  0.20299999 2.7060001 0.161
v  0.056000002 2.8080001 0.102
v  0.15000001 2.796 0.055
v  0.29100001 2.7190001 0.064000003
v  0.241 2.7679999 0.039999999
v  -0.044 2.8340001 0.017999999
v  -0.123 2.7850001 0.14300001
v  -0.213 2.7449999 0.074000001
v  -0.315 2.6730001 0.106
v  -0.233 2.6989999 0.23100001
v  -0.38100001 2.6370001 0.28600001
v  -0.26199999 2.6300001 0.29499999
v  -0.303 2.7030001 0.0089999996
v  -0.34799999 2.6140001 0.046999998
v  -0.329 2.664 -0.039999999
v  0.32300001 2.612 0.134
v  0.32800001 2.6289999 0.035
v  0.36700001 2.448 0.138
v  0.25400001 2.5940001 0.198
v  0.17900001 2.671 0.24600001
v  0.107 2.6099999 0.30899999
v  0.22400001 2.569 0.26699999
v  0.152 2.5220001 0.26800001
v  0.23100001 2.4549999 0.249
v  0.177 2.438 0.25
v  0.114 2.5109999 0.31799999
v  0.205 2.378 0.23100001
v  0.223 2.4130001 0.186
v  0.27000001 2.7579999 -0.041999999
v  0.057 2.5380001 0.29499999
v  0.048999999 2.5840001 0.28200001
v  -0.025 2.5239999 0.30700001
v  0.082000002 2.4820001 0.30199999
v  0.121 2.438 0.296
v  0.14399999 2.4820001 0.28799999
v  -0.114 2.5439999 0.34200001
v  -0.124 2.474 0.29499999
v  -0.18700001 2.4549999 0.28099999
v  -0.177 2.523 0.25600001
v  -0.23999999 2.556 0.287
v  -0.292 2.595 0.22400001
v  -0.30500001 2.461 0.23800001
v  -0.361 2.5369999 0.15800001
v  -0.34099999 2.402 0.12899999
v  -0.38600001 2.4519999 0.097000003
v  -0.243 2.4560001 0.221
v  -0.38800001 2.4030001 0.035
v  -0.34099999 2.444 0.034000002
v  -0.32100001 2.5569999 0.071999997
v  0.167 2.7780001 -0.12899999
v  0.050000001 2.7880001 -0.15700001
v  0.072999999 2.8629999 -0.039000001
v  -0.079000004 2.895 0.115
v  0.20999999 2.812 -0.061999999
v  0.20999999 2.823 0.052000001
v  0.34400001 2.6570001 -0.13500001
v  -0.103 2.8340001 -0.07
v  -0.24699999 2.802 -0.0040000002
v  -0.183 2.767 -0.18700001
v  -0.377 2.7490001 0.044
v  -0.068000004 2.7449999 -0.271
v  0.0089999996 2.6919999 -0.29300001
v  -0.15899999 2.6289999 -0.34999999
v  -0.23199999 2.6140001 -0.257
v  -0.255 2.4719999 -0.40900001
v  -0.34599999 2.5840001 -0.11
v  -0.035999998 2.5810001 -0.38100001
v  0.090999998 2.6110001 -0.38999999
v  0.064999998 2.5280001 -0.48800001
v  0.114 2.6949999 -0.32800001
v  0.19 2.563 -0.368
v  0.123 2.7809999 -0.221
v  0.23199999 2.619 -0.248
v  0.361 2.5209999 -0.039000001
v  0.36700001 2.5610001 -0.164
v  0.41 2.45 -0.20200001
v  0.28099999 2.825 0.048999999
v  -0.317 2.5090001 -0.153
v  -0.018999999 2.1270001 -0.22400001
v  -0.146 2.141 -0.163
v  -0.145 2.27 -0.31900001
v  -0.222 2.273 -0.237
v  -0.28400001 2.414 -0.21799999
v  -0.17299999 2.4619999 -0.354
v  -0.025 2.2720001 -0.36199999
v  -0.035999998 2.4809999 -0.389
v  0.107 2.273 -0.352
v  0.116 2.494 -0.377
v  0.245 2.4809999 -0.29699999
v  0.219 2.2720001 -0.28099999
v  0.061000001 2.1210001 -0.211
v  0.133 2.1270001 -0.17399999
v  0.052999999 2.0220001 -0.186
v  0.083999999 2.0810001 -0.126
v  0.105 2.049 -0.133
v  -0.20999999 2.2179999 -0.115
v  -0.16500001 2.175 -0.112
v  -0.021 2.049 -0.175
v  -0.1 2.131 -0.125
v  -0.0080000004 2.0810001 -0.15700001
v  -0.27399999 2.322 -0.085000001
v  0.33399999 2.4619999 -0.18700001
v  0.29100001 2.27 -0.176
v  0.34200001 2.414 -0.011
v  0.32300001 2.4590001 0.103
v  0.29300001 2.388 0.156
v  0.255 2.322 0.090000004
v  0.21699999 2.224 0.112
v  0.223 2.3510001 0.168
v  0.303 2.273 -0.064000003
v  0.199 2.141 -0.048999999
v  0.222 2.2179999 0.028000001
v  0.139 2.131 -0.046
v  0.184 2.175 0.003
v  -0.345 2.388 -0.054000001
v  -0.25600001 2.224 -0.044
v  -0.294 2.3510001 -0.003
v  -0.38600001 2.424 -0.197
v  -0.37799999 2.47 -0.115
v  -0.37099999 2.533 -0.035999998
v  -0.28299999 2.4630001 0.025
v  -0.149 2.5309999 0.22
v  0.034000002 2.1070001 -0.13

# 1 UV coordinates
vt 0 1 0

# 223 vertex normals
vn -0.058199946 0.84004921 0.53937948
vn -0.10913965 0.76219755 0.63807797
vn -0.086090043 0.78298038 0.61606032
vn 0.030370092 0.72112215 0.69214207
vn 0.34783053 0.83272129 0.43080065
vn 0.45059797 0.76710653 0.45662794
vn 0.65879029 0.64213032 0.39200017
vn 0.012589983 0.92750871 0.37358946
vn 0.4188287 0.83788741 0.35003892
vn 0.74088818 0.60398853 0.29373926
vn 0.47931969 0.73537958 0.47902972
vn -0.17337926 0.93777597 0.30085871
vn -0.25047889 0.89893603 0.35940841
vn -0.50567257 0.84815437 0.15789081
vn -0.60546041 0.78699052 0.11859008
vn -0.27098957 0.84479856 0.46138921
vn -0.23707084 0.89990324 0.36602131
vn -0.050630234 0.68808323 0.72386336
vn -0.7694993 0.62858939 0.11289989
vn -0.88216335 0.46828178 0.050000191
vn -0.87224114 0.48040062 0.09171012
vn 0.80186933 0.36311969 0.47449961
vn 0.93910336 0.3371112 0.066640235
vn 0.85360897 0.24258971 0.46097946
vn 0.76501936 0.31739974 0.56035954
vn 0.55834788 0.47470817 0.68036735
vn -0.0059099961 0.25489986 0.9669494
vn 0.63221097 0.080900125 0.77056122
vn 0.37473854 -0.12659951 0.91844636
vn 0.71780974 -0.24721991 0.65086979
vn -0.7863099 -0.40108994 0.46993995
vn 0.23058973 -0.028999964 0.97261888
vn -0.078829959 -0.98819953 0.13132994
vn -0.83503997 -0.1953 -0.51436001
vn 0.96198034 -0.26849008 0.050070018
vn 0.81012833 0.58438879 0.046709906
vn -0.40605906 0.05949986 0.91190785
vn -0.026209872 0.11910942 0.99253517
vn 0.16221072 0.21049093 0.96404421
vn 0.22166045 0.12200025 0.96746194
vn 0.32399011 -0.25470009 0.91113031
vn -0.29339069 -0.20281048 0.93423223
vn 0.2599299 -0.26388988 0.92886961
vn 0.70201826 -0.028999927 0.71156824
vn -0.29290065 -0.056500126 0.95447212
vn -0.41549826 0.34940854 0.8398065
vn 0.053749967 -0.56149966 0.82572955
vn -0.61240292 -0.029000137 0.79001373
vn -0.346329 -0.082399763 0.93448734
vn -0.23547016 -0.0046000034 0.97187072
vn -0.70101565 0.32800797 0.63323605
vn -0.43713236 -0.48340258 0.75844407
vn -0.9482671 0.19540939 0.25020921
vn -0.73727691 -0.4271982 0.52337778
vn -0.99618822 0.038099933 0.078469858
vn 0.12177028 -0.68199158 0.72115159
vn -0.94576466 0.26401129 -0.18928093
vn -0.68150336 0.48391235 -0.54898268
vn -0.86846012 0.28840002 -0.40324005
vn -0.94039685 0.33560887 0.054959819
vn 0.41296014 0.82651031 -0.38255015
vn 0.0023000068 0.91315275 -0.40761122
vn 0.17280065 0.96664357 -0.1890507
vn 0.12075026 0.98722214 0.10398022
vn 0.43762159 0.81777292 0.37381133
vn 0.15792987 0.98613918 -0.05086996
vn -0.26759991 0.92313963 -0.27604991
vn 0.14137983 0.88981891 -0.4338595
vn -0.22624119 0.9700051 -0.088910468
vn 0.69237804 0.62829822 -0.35475898
vn 0.80885291 0.50223178 -0.30581111
vn 0.9284519 0.34328067 0.14190029
vn -0.079959802 0.98118758 -0.17571956
vn -0.31101993 0.93827975 0.15131997
vn -0.44789994 0.74481994 -0.49459994
vn -0.30263102 0.93134308 0.20252067
vn -0.14381982 0.76139909 0.63212925
vn -0.050259963 0.74319947 -0.66717952
vn -0.041399937 0.69246894 -0.72025889
vn -0.35398966 0.62079942 -0.69949937
vn -0.68385082 0.51270062 -0.51912057
vn -0.41492894 0.53538871 -0.73565817
vn -0.79231924 0.33260968 -0.51146954
vn -0.10614998 0.62419987 -0.77401984
vn 0.1047002 0.66079128 -0.74323142
vn 0.063879937 0.75315928 -0.65472943
vn 0.22511905 0.68067712 -0.69713706
vn 0.54213023 0.55420023 -0.6316303
vn 0.24752949 0.87409824 -0.41794917
vn 0.6142599 0.54810989 -0.56767988
vn 0.96264344 0.23810086 0.12894046
vn 0.87067086 0.38131034 -0.3107003
vn 0.87583971 0.41838986 -0.24052991
vn 0.27004996 0.92110986 -0.28040996
vn -0.73329926 0.6105094 -0.29924971
vn -0.68708068 0.70192063 -0.18769018
vn -0.79469085 0.042700045 -0.60551065
vn -0.16884008 -0.6286003 -0.75918037
vn -0.60493237 -0.78448308 -0.13654053
vn -0.48251122 -0.45481113 -0.74855185
vn -0.78125834 -0.44709906 -0.43558908
vn -0.8295508 -0.19381018 -0.5237205
vn -0.58603734 -0.11600947 -0.80193639
vn -0.78519243 0.083900258 -0.6135419
vn -0.098040149 -0.42870066 -0.89811134
vn -0.067699671 -0.13139936 -0.98901516
vn 0.28451046 -0.41521069 -0.86409146
vn 0.36300838 -0.025899887 -0.93142587
vn 0.66284347 0.091600478 -0.7431339
vn 0.61243957 -0.4286997 -0.6641795
vn 0.2718899 -0.49417976 -0.82574958
vn 0.58685052 -0.6286006 -0.51036048
vn 0.23809031 -0.64840084 -0.72311097
vn 0.24293086 -0.80891293 -0.53539193
vn 0.20366019 -0.68831068 -0.69624066
vn -0.82357955 -0.55728966 -0.10556994
vn -0.62133825 -0.73527795 0.27074924
vn 0.24982047 -0.68831134 -0.6810413
vn -0.49428126 -0.7661019 0.41082105
vn 0.12268006 -0.80891037 -0.57499027
vn -0.77277035 -0.47158024 -0.42478022
vn 0.90838248 -0.10680029 -0.4042711
vn 0.83284438 -0.45481238 -0.31546167
vn 0.95769364 -0.26400101 0.11457044
vn 0.98965353 -0.073200263 0.12340044
vn 0.93217307 -0.070200235 0.35514119
vn 0.72511774 -0.31409901 0.61281812
vn 0.87434638 -0.46829805 0.12733947
vn 0.78535384 -0.46842229 0.40472198
vn 0.33443135 -0.3477014 0.87593359
vn 0.34160858 -0.18298924 0.92185611
vn 0.65449154 -0.032000076 0.75539178
vn 0.95110303 0.090000294 0.29547095
vn 0.88721842 -0.44709921 0.1137798
vn 0.56771326 -0.78448445 0.24957143
vn 0.72519153 -0.55729121 0.40438086
vn 0.15350023 -0.76610106 0.62412089
vn 0.33893055 -0.73528111 0.58693087
vn 0.65532172 0.30539081 -0.69086176
vn -0.76315171 -0.63476145 -0.12115028
vn -0.86803794 -0.47597888 -0.14125966
vn -0.77792865 -0.4426192 0.44599921
vn -0.76259893 -0.53247923 0.36729947
vn -0.88097113 -0.13891017 -0.45232061
vn -0.66688693 -0.19390911 -0.71948665
vn 0.80886859 -0.47449917 -0.34724939
vn -0.81867331 0.10220042 -0.56509227
vn -0.9009245 0.35241175 -0.25326127
vn -0.99631774 0.019799955 0.083419815
vn -0.9890129 0.077800229 0.12570037
vn -0.95673466 -0.20600101 0.20548099
vn -0.97510999 0.13429999 -0.17642
vn -0.045099929 0.48548925 -0.87307864
vn -0.95725542 -0.10069952 0.27114871
vn -0.87228227 -0.11290029 0.47579125
vn -0.92667794 -0.027499938 0.37484917
vn -0.80778766 -0.12960963 0.57504833
vn -0.95249826 0.29760948 -0.064619884
vn 0.34462062 -0.80589145 0.48143086
vn 0.41888037 -0.80438077 -0.42132038
vn 0.58532852 -0.78872806 0.18787952
vn 0.74047059 -0.57052046 -0.35526031
vn 0.30945989 -0.95028967 0.034409989
vn 0.24129058 -0.25319061 0.9368422
vn 0.65356004 -0.69063008 -0.30966002
vn 0.6285097 -0.71016961 -0.31722984
vn 0.27248046 -0.74894124 -0.60402101
vn 0.26154917 -0.57248813 -0.7770775
vn 0.29678968 -0.37241963 -0.87932903
vn 0.29996988 -0.36978987 -0.87935972
vn -0.079749726 0.091499686 -0.99260652
vn -0.10718975 0.090099797 -0.99014771
vn -0.26231873 0.08859957 -0.96090531
vn 0.073199935 0.090099908 -0.99323905
vn -0.24956104 -0.60268253 0.75795317
vn -0.065210238 -0.57239211 0.81738305
vn -0.25815055 -0.56452113 0.7840116
vn -0.43316936 -0.57238919 0.69622898
vn -0.034149937 -0.58318889 0.81161845
vn 0.026879968 -0.50359941 0.86351901
vn -0.45472834 -0.58318788 0.67313749
vn -0.53466016 -0.50360018 0.67862022
vn -0.30931953 -0.28220955 -0.90811855
vn -0.26530024 -0.32480031 -0.90781087
vn -0.26581985 -0.22289987 -0.93789947
vn -0.21539925 -0.28399903 -0.93431675
vn -0.22562094 -0.065600276 -0.97200406
vn -0.31080091 -0.30360091 -0.90068269
vn 0.68391377 -0.72808397 -0.046430252
vn 0.35547072 -0.88617182 -0.29722059
vn -0.17362019 -0.96222103 -0.20973022
vn -0.49550948 -0.86790907 -0.034699962
vn 0.67058873 -0.73411864 0.1066798
vn 0.18488047 -0.91076225 0.36923093
vn -0.40801007 -0.91232014 0.034640003
vn -0.26367953 -0.96236825 0.065729879
vn -0.59694153 -0.71594191 -0.36206096
vn 0.34177867 -0.89259648 0.29403883
vn 0.44141787 -0.44987786 0.77637631
vn 0.087549731 -0.18299943 0.97920698
vn 0.44635069 -0.43322068 0.78300118
vn 0.1144397 -0.16790955 0.97913742
vn 0.74252921 -0.5830794 0.32964966
vn -0.3694897 -0.74910939 0.54982954
vn 0.095070273 -0.96953279 0.22576064
vn 0.096289679 -0.96968681 0.22457926
vn 0.52981061 -0.82722092 -0.18710019
vn 0.030710114 -0.97687364 -0.21160078
vn -0.49175188 -0.60019225 0.63083237
vn -0.23552921 -0.95330685 0.18902938
vn 0.39399984 -0.60669976 -0.69041973
vn -0.49301788 -0.86391628 0.10286956
vn -0.53129929 -0.84717888 -0.003019996
vn -0.14303955 -0.72838771 0.67006791
vn -0.61226845 -0.56151855 -0.55661863
vn 0.054430008 -0.93344015 -0.35458001
vn -0.14047027 -0.98257184 -0.12174023
vn -0.56097817 -0.64866787 0.5143283
vn 0.53519154 -0.32499093 -0.7797122
vn -0.22483912 -0.87696654 -0.42470834
vn -0.08408989 -0.92165881 0.3787795
vn -0.23621991 -0.47838983 -0.84577972
vn -0.49031958 -0.80533934 0.33318973

# Mesh 'Object_0' with 238 faces
g Object_0
usemtl vsn_mesh_0_BodyB_material_fb5b1438-ec0f-4a83-9dc4-2f46ec705c4a
f  1/1/1 2/1/2 3/1/3
f  4/1/4 1/1/1 3/1/3
f  5/1/5 1/1/1 4/1/4
f  4/1/4 6/1/6 5/1/5
f  5/1/5 6/1/6 7/1/7
f  5/1/5 8/1/8 1/1/1
f  5/1/5 7/1/7 9/1/9
f  8/1/8 5/1/5 9/1/9
f  9/1/9 7/1/7 10/1/10
f  10/1/10 11/1/11 9/1/9
f  8/1/8 12/1/12 1/1/1
f  1/1/1 12/1/12 13/1/13
f  1/1/1 13/1/13 2/1/2
f  12/1/12 14/1/14 13/1/13
f  13/1/13 14/1/14 15/1/15
f  16/1/16 13/1/13 15/1/15
f  2/1/2 13/1/13 16/1/16
f  15/1/15 17/1/17 16/1/16
f  17/1/17 18/1/18 16/1/16
f  18/1/18 2/1/2 16/1/16
f  15/1/15 14/1/14 19/1/19
f  19/1/19 20/1/20 15/1/15
f  21/1/21 20/1/20 19/1/19
f  22/1/22 10/1/10 7/1/7
f  10/1/10 22/1/22 23/1/23
f  22/1/22 24/1/24 23/1/23
f  7/1/7 25/1/25 22/1/22
f  22/1/22 25/1/25 24/1/24
f  26/1/26 25/1/25 7/1/7
f  27/1/27 26/1/26 4/1/4
f  27/1/27 28/1/28 26/1/26
f  25/1/25 26/1/26 28/1/28
f  28/1/28 27/1/27 29/1/29
f  29/1/29 30/1/30 28/1/28
f  28/1/28 30/1/30 25/1/25
f  31/1/31 30/1/30 29/1/29
f  32/1/32 29/1/29 27/1/27
f  30/1/30 31/1/31 33/1/33
f  33/1/33 31/1/31 34/1/34
f  31/1/31 29/1/29 34/1/34
f  33/1/33 34/1/35 30/1/30
f  30/1/30 34/1/35 25/1/25
f  10/1/10 23/1/23 35/1/36
f  10/1/10 35/1/36 11/1/11
f  27/1/27 36/1/37 32/1/32
f  27/1/27 37/1/38 36/1/37
f  37/1/38 27/1/27 4/1/39
f  3/1/40 37/1/38 4/1/39
f  3/1/40 38/1/41 37/1/38
f  32/1/32 36/1/37 39/1/42
f  32/1/32 39/1/42 40/1/43
f  41/1/44 32/1/32 40/1/43
f  29/1/29 32/1/32 41/1/44
f  3/1/40 42/1/45 38/1/41
f  2/1/46 42/1/45 3/1/40
f  43/1/47 38/1/41 42/1/45
f  43/1/47 42/1/45 44/1/48
f  42/1/45 45/1/49 44/1/48
f  42/1/45 2/1/46 45/1/49
f  2/1/46 46/1/50 45/1/49
f  47/1/51 46/1/50 2/1/46
f  46/1/50 47/1/51 48/1/52
f  48/1/52 47/1/51 49/1/53
f  48/1/52 49/1/53 50/1/54
f  50/1/54 49/1/53 51/1/55
f  50/1/54 52/1/56 48/1/52
f  48/1/52 52/1/56 46/1/50
f  46/1/50 52/1/56 45/1/49
f  53/1/57 50/1/54 51/1/55
f  51/1/55 54/1/58 53/1/57
f  49/1/53 55/1/59 51/1/55
f  51/1/55 55/1/59 54/1/58
f  49/1/53 47/1/51 15/1/60
f  49/1/53 15/1/60 55/1/59
f  56/1/61 57/1/62 58/1/63
f  58/1/63 9/1/64 56/1/61
f  58/1/63 8/1/65 9/1/64
f  59/1/66 8/1/65 58/1/63
f  59/1/66 58/1/63 12/1/67
f  12/1/67 58/1/63 57/1/62
f  56/1/61 9/1/64 60/1/68
f  60/1/68 9/1/64 61/1/69
f  60/1/68 35/1/70 56/1/61
f  62/1/71 56/1/61 35/1/70
f  23/1/72 62/1/71 35/1/70
f  12/1/67 57/1/62 63/1/73
f  64/1/74 12/1/67 63/1/73
f  65/1/75 64/1/74 63/1/73
f  66/1/76 64/1/74 65/1/75
f  64/1/74 66/1/76 14/1/77
f  14/1/77 12/1/67 64/1/74
f  67/1/78 63/1/73 57/1/62
f  63/1/73 67/1/78 65/1/75
f  68/1/79 67/1/78 57/1/62
f  68/1/79 69/1/80 67/1/78
f  67/1/78 69/1/80 70/1/81
f  67/1/78 70/1/81 65/1/75
f  69/1/80 71/1/82 70/1/81
f  70/1/81 72/1/83 65/1/75
f  69/1/80 73/1/84 71/1/82
f  73/1/84 69/1/80 68/1/79
f  73/1/84 68/1/79 74/1/85
f  73/1/84 74/1/85 75/1/86
f  74/1/85 68/1/79 76/1/87
f  74/1/85 77/1/88 75/1/86
f  76/1/87 77/1/88 74/1/85
f  57/1/62 78/1/89 68/1/79
f  57/1/62 56/1/61 78/1/89
f  76/1/87 68/1/79 78/1/89
f  79/1/90 77/1/88 76/1/87
f  78/1/89 56/1/61 79/1/90
f  62/1/71 79/1/90 56/1/61
f  79/1/90 76/1/87 78/1/89
f  23/1/72 80/1/91 62/1/71
f  62/1/71 80/1/91 81/1/92
f  81/1/92 79/1/90 62/1/71
f  79/1/90 81/1/92 82/1/93
f  82/1/93 81/1/92 80/1/91
f  60/1/68 61/1/69 83/1/94
f  83/1/94 35/1/70 60/1/68
f  21/1/95 65/1/75 72/1/83
f  19/1/96 65/1/75 21/1/95
f  72/1/83 70/1/81 84/1/97
f  85/1/98 86/1/99 87/1/100
f  86/1/99 88/1/101 87/1/100
f  89/1/102 87/1/100 88/1/101
f  90/1/103 87/1/100 89/1/102
f  89/1/102 70/1/104 90/1/103
f  90/1/103 91/1/105 87/1/100
f  87/1/100 91/1/105 85/1/98
f  92/1/106 91/1/105 90/1/103
f  92/1/106 93/1/107 91/1/105
f  94/1/108 93/1/107 92/1/106
f  95/1/109 93/1/107 94/1/108
f  96/1/110 93/1/107 95/1/109
f  96/1/110 97/1/111 93/1/107
f  93/1/107 97/1/111 91/1/105
f  91/1/105 97/1/111 85/1/98
f  98/1/112 97/1/111 96/1/110
f  98/1/112 99/1/113 97/1/111
f  85/1/98 97/1/111 99/1/113
f  98/1/112 100/1/114 99/1/113
f  98/1/112 101/1/115 100/1/114
f  88/1/101 86/1/99 102/1/116
f  86/1/99 103/1/117 102/1/116
f  104/1/118 86/1/99 85/1/98
f  86/1/99 104/1/118 105/1/119
f  103/1/117 86/1/99 105/1/119
f  85/1/98 99/1/113 106/1/120
f  85/1/98 106/1/120 104/1/118
f  89/1/102 88/1/101 107/1/121
f  107/1/121 88/1/101 102/1/116
f  95/1/109 108/1/122 96/1/110
f  96/1/110 108/1/122 109/1/123
f  109/1/123 98/1/112 96/1/110
f  108/1/122 110/1/124 109/1/123
f  108/1/122 80/1/125 110/1/124
f  110/1/124 80/1/125 111/1/126
f  111/1/126 112/1/127 110/1/124
f  113/1/128 110/1/124 112/1/127
f  112/1/127 114/1/129 113/1/128
f  112/1/127 115/1/130 114/1/129
f  112/1/127 34/1/131 115/1/130
f  25/1/132 34/1/131 112/1/127
f  112/1/127 111/1/126 25/1/132
f  23/1/133 111/1/126 80/1/125
f  109/1/123 110/1/124 116/1/134
f  113/1/128 116/1/134 110/1/124
f  117/1/135 109/1/123 116/1/134
f  101/1/115 98/1/112 117/1/135
f  98/1/112 109/1/123 117/1/135
f  116/1/134 118/1/136 117/1/135
f  118/1/136 116/1/134 113/1/128
f  117/1/135 119/1/137 101/1/115
f  117/1/135 120/1/138 119/1/137
f  120/1/138 117/1/135 118/1/136
f  79/1/139 108/1/122 95/1/109
f  79/1/139 95/1/109 94/1/108
f  121/1/140 107/1/121 122/1/141
f  121/1/140 122/1/141 123/1/142
f  54/1/143 121/1/140 123/1/142
f  121/1/140 89/1/144 107/1/121
f  84/1/145 89/1/144 121/1/140
f  124/1/146 84/1/145 121/1/140
f  70/1/147 89/1/144 84/1/145
f  72/1/148 125/1/149 126/1/150
f  125/1/149 121/1/151 126/1/150
f  124/1/152 121/1/151 125/1/149
f  125/1/149 72/1/148 124/1/152
f  124/1/152 72/1/148 84/1/153
f  126/1/150 121/1/151 54/1/154
f  55/1/155 126/1/150 54/1/154
f  20/1/156 126/1/150 55/1/155
f  15/1/157 20/1/156 55/1/155
f  20/1/156 21/1/158 126/1/150
f  126/1/150 21/1/158 72/1/148
f  127/1/159 45/1/160 54/1/161
f  52/1/162 54/1/161 45/1/160
f  45/1/160 127/1/159 128/1/163
f  123/1/164 127/1/159 54/1/161
f  54/1/161 52/1/162 50/1/165
f  54/1/161 50/1/165 53/1/166
f  37/1/167 45/1/160 128/1/163
f  38/1/168 45/1/160 37/1/167
f  43/1/169 45/1/160 38/1/168
f  45/1/160 43/1/169 44/1/170
f  73/1/171 92/1/172 90/1/173
f  92/1/172 73/1/171 94/1/174
f  129/1/175 106/1/176 99/1/177
f  129/1/175 99/1/177 100/1/178
f  106/1/176 129/1/175 105/1/179
f  105/1/179 104/1/180 106/1/176
f  100/1/178 119/1/181 129/1/175
f  119/1/181 100/1/178 101/1/182
f  36/1/183 29/1/184 39/1/185
f  39/1/185 29/1/184 41/1/186
f  40/1/187 39/1/185 41/1/186
f  36/1/183 37/1/188 29/1/184
f  77/1/189 94/1/190 75/1/191
f  73/1/192 75/1/191 94/1/190
f  77/1/189 79/1/193 94/1/190
f  18/1/194 17/1/195 47/1/196
f  17/1/195 15/1/197 47/1/196
f  18/1/194 47/1/196 2/1/198
f  83/1/199 61/1/200 11/1/201
f  11/1/201 61/1/200 9/1/202
f  83/1/199 11/1/201 35/1/203
f  4/1/204 26/1/205 6/1/206
f  7/1/207 6/1/206 26/1/205
f  90/1/208 70/1/209 71/1/210
f  71/1/210 73/1/211 90/1/208
f  66/1/212 19/1/213 14/1/214
f  66/1/212 65/1/215 19/1/213
f  111/1/216 24/1/217 25/1/218
f  23/1/219 24/1/217 111/1/216
f  108/1/220 82/1/221 80/1/221
f  108/1/220 79/1/222 82/1/222
f  59/1/223 12/1/223 8/1/223

